<svg width="58" height="57" viewBox="0 0 58 57" fill="none" xmlns="http://www.w3.org/2000/svg">
<path d="M10.33 15.6984L14.33 17.6984C15.0663 18.02 15.8675 18.1649 16.6697 18.1215C17.4719 18.0781 18.2528 17.8476 18.95 17.4484L22.7301 14.9884C23.3805 14.5163 23.9099 13.8968 24.2749 13.1807C24.6399 12.4646 24.8302 11.6722 24.83 10.8684L24.5901 6.3584C24.5025 5.5611 24.2289 4.7954 23.7912 4.1232C23.3534 3.451 22.7639 2.891 22.07 2.4884L18.07 0.438398C17.3352 0.112998 16.534 -0.0348019 15.7314 0.0068981C14.9288 0.0485981 14.1472 0.278597 13.45 0.678397L9.6701 3.1384C9.02081 3.6117 8.49221 4.2314 8.12741 4.9473C7.76251 5.6631 7.57151 6.455 7.57001 7.2584L7.81001 11.7684C7.88771 12.5766 8.15681 13.3546 8.59501 14.038C9.03321 14.7215 9.62801 15.2907 10.33 15.6984Z" fill="#F6F6F6"/>
<path d="M34.4599 21.5385L30.4599 19.4885C29.7254 19.167 28.9258 19.0222 28.1252 19.0656C27.3246 19.109 26.5454 19.3395 25.8499 19.7385L22.0299 22.1985C21.383 22.674 20.8561 23.2942 20.4915 24.0096C20.1269 24.7249 19.9345 25.5156 19.9299 26.3185L20.17 30.8285C20.2575 31.6259 20.5311 32.3916 20.9688 33.0638C21.4066 33.736 21.9961 34.296 22.6899 34.6985L26.6899 36.6985C27.4231 37.0238 28.2226 37.1717 29.0237 37.13C29.8247 37.0883 30.6045 36.8582 31.2999 36.4585L35.0899 33.9985C35.7371 33.5209 36.2639 32.8989 36.6284 32.1819C36.993 31.465 37.1853 30.6728 37.1899 29.8685L36.9499 25.3685C36.8582 24.5814 36.5857 23.8261 36.1538 23.1617C35.7218 22.4973 35.1421 21.9418 34.4599 21.5385Z" fill="#F6F6F6"/>
<path d="M46.8 40.5586L42.8 38.5586C42.0651 38.2331 41.264 38.0853 40.4614 38.127C39.6588 38.1687 38.8772 38.3987 38.18 38.7986L34.4001 41.2586C33.7519 41.7329 33.2242 42.3529 32.8595 43.0685C32.4947 43.7841 32.3031 44.5754 32.3 45.3786L32.5401 49.8886C32.6358 50.6731 32.9112 51.425 33.3448 52.0857C33.7783 52.7465 34.3585 53.2984 35.0401 53.6986L39.0401 55.6986C39.7763 56.0201 40.5775 56.165 41.3797 56.1216C42.1819 56.0782 42.9628 55.8477 43.6601 55.4486L47.45 52.9886C48.0975 52.5142 48.6241 51.894 48.9872 51.1782C49.3503 50.4624 49.5397 49.6712 49.5401 48.8686L49.33 44.4386C49.2437 43.6383 48.9696 42.8697 48.5299 42.1954C48.0903 41.5212 47.4975 40.9603 46.8 40.5586Z" fill="#F6F6F6"/>
<path d="M17.33 29.3584L17.14 25.8484C17.1446 25.0455 17.3369 24.2548 17.7016 23.5395C18.0662 22.8241 18.593 22.2039 19.24 21.7284L26.61 16.9384C27.3054 16.5394 28.0847 16.3089 28.8853 16.2655C29.6859 16.2221 30.4855 16.367 31.22 16.6884L34.36 18.2884C35.0949 18.6138 35.896 18.7617 36.6986 18.72C37.5013 18.6783 38.2828 18.4482 38.98 18.0484L42.76 15.5784C43.4087 15.1046 43.9368 14.4848 44.3016 13.769C44.6664 13.0533 44.8577 12.2618 44.86 11.4584L44.62 6.95841C44.534 6.15931 44.261 5.39161 43.8232 4.71761C43.3854 4.04351 42.7951 3.482 42.1 3.0784L38.1 1.02841C37.3638 0.706906 36.5626 0.562005 35.7603 0.605405C34.9581 0.648805 34.1772 0.879306 33.48 1.27841L29.62 3.69841C28.9725 4.17281 28.4459 4.79301 28.0828 5.50881C27.7197 6.22461 27.5303 7.01581 27.53 7.81841L27.71 11.3284C27.7097 12.1311 27.5202 12.9223 27.1571 13.6381C26.794 14.3539 26.2674 14.9741 25.62 15.4484L18.25 20.2384C17.5528 20.6382 16.7713 20.8683 15.9687 20.91C15.166 20.9517 14.3649 20.8038 13.63 20.4784L10.5 18.8884C9.7651 18.563 8.964 18.4152 8.1613 18.4569C7.3587 18.4986 6.5772 18.7286 5.88 19.1284L2.1 21.5884C1.4507 22.0617 0.922201 22.6814 0.557301 23.3973C0.192401 24.1132 0.0015 24.905 0 25.7084L0.239998 30.2184C0.325198 31.0178 0.597898 31.7858 1.0357 32.46C1.4736 33.1342 2.0643 33.6955 2.76 34.0984L6.76 36.0984C7.4962 36.42 8.2974 36.5649 9.0996 36.5215C9.9018 36.4781 10.6828 36.2476 11.38 35.8484L15.16 33.3884C15.8096 32.9311 16.3437 32.3289 16.7204 31.6294C17.097 30.93 17.3057 30.1525 17.33 29.3584Z" fill="#F6F6F6"/>
<path d="M56.9201 25.9786C56.831 25.1803 56.5568 24.4139 56.1193 23.7403C55.6818 23.0667 55.0931 22.5045 54.4001 22.0986L50.4001 20.0986C49.6637 19.7778 48.8625 19.6333 48.0605 19.6767C47.2584 19.7201 46.4775 19.9502 45.7801 20.3486L42 22.8086C41.3519 23.283 40.8243 23.9029 40.4595 24.6185C40.0948 25.3341 39.9031 26.1254 39.9001 26.9286L40.0901 30.4486C40.087 31.2517 39.8954 32.043 39.5306 32.7586C39.1659 33.4742 38.6382 34.0942 37.99 34.5686L30.63 39.3486C29.9328 39.7477 29.1519 39.9782 28.3497 40.0216C27.5475 40.065 26.7463 39.9201 26.01 39.5986L22.87 37.9986C22.1355 37.6771 21.3359 37.5322 20.5353 37.5756C19.7347 37.6191 18.9555 37.8495 18.26 38.2486L14.44 40.6986C13.7931 41.1741 13.2663 41.7942 12.9016 42.5096C12.537 43.2249 12.3447 44.0156 12.3401 44.8186L12.58 49.3285C12.6676 50.1259 12.9412 50.8916 13.3789 51.5638C13.8167 52.236 14.4062 52.796 15.1001 53.1986L19.1001 55.2486C19.8332 55.5739 20.6327 55.7217 21.4337 55.68C22.2348 55.6383 23.0146 55.4082 23.7101 55.0085L27.5 52.5485C28.1464 52.0725 28.6729 51.4522 29.0374 50.737C29.402 50.0217 29.5946 49.2313 29.6001 48.4286L29.4101 44.9085C29.4123 44.1052 29.6036 43.3137 29.9684 42.598C30.3332 41.8822 30.8613 41.2624 31.51 40.7885L38.87 35.9986C39.5672 35.5988 40.3488 35.3687 41.1514 35.327C41.954 35.2853 42.7551 35.4331 43.49 35.7585L46.62 37.3486C47.3549 37.674 48.1561 37.8218 48.9587 37.7801C49.7613 37.7384 50.5428 37.5084 51.24 37.1086L55.0301 34.6486C55.6769 34.1736 56.2031 33.5533 56.5661 32.8377C56.9292 32.122 57.1189 31.331 57.12 30.5286L56.9201 25.9786Z" fill="#F6F6F6"/>
</svg>
